<svg width="100" height="100" viewBox="0 0 100 100" fill="none" xmlns="http://www.w3.org/2000/svg">
<path d="M53.8841 29.2805C46.4149 30.9189 44.5476 39.5203 46.5772 43.6163C42.5179 43.2067 36.3477 45.0908 36.023 50.9889C35.6982 56.8871 38.8645 59.1808 42.5179 60H79.0519C80.9463 59.7269 84.5726 57.8701 83.9231 52.6273C83.2736 47.3845 77.9694 46.62 75.3985 46.893C76.6163 44.8451 76.592 41.5437 74.1807 39.1108C72.557 37.4724 68.9036 37.0628 66.0621 39.1108C65.2502 34.6052 62.0027 27.4997 53.8841 29.2805Z" fill="#A1A1A5"/>
<path d="M38.0283 34.3424C28.8283 36.3424 26.5283 46.8424 29.0283 51.8424C24.0283 51.3424 16.4283 53.6424 16.0283 60.8424C15.6283 68.0424 19.5283 70.8424 24.0283 71.8424H69.0283C71.3616 71.5091 75.8283 69.2424 75.0283 62.8424C74.2283 56.4424 67.695 55.5091 64.5283 55.8424C66.0283 53.3424 65.9983 49.3124 63.0283 46.3424C61.0283 44.3424 56.5283 43.8424 53.0283 46.3424C52.0283 40.8424 48.0283 32.1685 38.0283 34.3424Z" fill="#F2F2F1"/>
</svg>
