<svg width="100" height="100" viewBox="0 0 100 100" fill="none" xmlns="http://www.w3.org/2000/svg">
<path d="M53.1986 25.231C47.0475 26.5803 45.5098 33.6638 47.1813 37.0369C43.8383 36.6996 38.7569 38.2513 38.4895 43.1085C38.2221 47.9658 40.8296 49.8548 43.8383 50.5294H73.9251C75.4852 50.3045 78.4716 48.7754 77.9367 44.4578C77.4018 40.1402 73.0337 39.5106 70.9164 39.7354C71.9193 38.0489 71.8993 35.3301 69.9135 33.3265C68.5764 31.9773 65.5677 31.6399 63.2276 33.3265C62.559 29.6161 59.8846 23.7644 53.1986 25.231Z" fill="#A1A1A5"/>
<path d="M40.1409 29.3996C32.5645 31.0467 30.6704 39.6938 32.7292 43.8114C28.6115 43.3996 22.3527 45.2938 22.0233 51.2232C21.6939 57.1526 24.9057 59.4585 28.6115 60.282H65.6704C67.5919 60.0075 71.2704 58.1408 70.6115 52.8702C69.9527 47.5996 64.5723 46.831 61.9645 47.1055C63.1998 45.0467 63.1751 41.7279 60.7292 39.282C59.0821 37.6349 55.3762 37.2232 52.4939 39.282C51.6704 34.7526 48.3762 27.6094 40.1409 29.3996Z" fill="#F2F2F1"/>
<rect x="34.6215" y="64.6301" width="3" height="7" rx="1.5" transform="rotate(13.3935 34.6215 64.6301)" fill="#3891A6"/>
<rect x="42.6215" y="63.6301" width="3" height="5.23586" rx="1.5" transform="rotate(13.3935 42.6215 63.6301)" fill="#3891A6"/>
<rect x="40.8838" y="70.6301" width="3" height="3.81532" rx="1.5" transform="rotate(13.3935 40.8838 70.6301)" fill="#3891A6"/>
<rect x="51.4921" y="61.6301" width="3" height="6.44153" rx="1.5" transform="rotate(13.3935 51.4921 61.6301)" fill="#3891A6"/>
<rect x="49.2511" y="69.6301" width="3" height="5.40096" rx="1.5" transform="rotate(13.3935 49.2511 69.6301)" fill="#3891A6"/>
</svg>
