<svg width="100" height="100" viewBox="0 0 100 100" fill="none" xmlns="http://www.w3.org/2000/svg">
<circle cx="62" cy="39" r="14" fill="#A1A1A5"/>
<path d="M42.1409 28.3997C34.5645 30.0467 32.6704 38.6938 34.7292 42.8114C30.6115 42.3997 24.3527 44.2938 24.0233 50.2232C23.6939 56.1526 26.9057 58.4585 30.6115 59.282H67.6704C69.5919 59.0075 73.2704 57.1409 72.6115 51.8703C71.9527 46.5997 66.5723 45.831 63.9645 46.1056C65.1998 44.0467 65.1751 40.7279 62.7292 38.282C61.0821 36.635 57.3762 36.2232 54.4939 38.282C53.6704 33.7526 50.3762 26.6094 42.1409 28.3997Z" fill="#F2F2F2"/>
<rect x="36.6215" y="63.6301" width="3" height="7" rx="1.5" transform="rotate(13.3935 36.6215 63.6301)" fill="#3891A6"/>
<rect x="44.6215" y="62.6301" width="3" height="5.23586" rx="1.5" transform="rotate(13.3935 44.6215 62.6301)" fill="#3891A6"/>
<rect x="42.8838" y="69.6301" width="3" height="3.81532" rx="1.5" transform="rotate(13.3935 42.8838 69.6301)" fill="#3891A6"/>
<rect x="53.4921" y="60.6301" width="3" height="6.44153" rx="1.5" transform="rotate(13.3935 53.4921 60.6301)" fill="#3891A6"/>
<rect x="51.2511" y="68.6301" width="3" height="5.40096" rx="1.5" transform="rotate(13.3935 51.2511 68.6301)" fill="#3891A6"/>
</svg>
