<svg width="100" height="100" viewBox="0 0 100 100" fill="none" xmlns="http://www.w3.org/2000/svg">
<path d="M53.5042 22.2703C46.3071 23.849 44.5078 32.1372 46.4635 36.0839C42.5521 35.6892 36.6066 37.5047 36.2937 43.1881C35.9808 48.8714 39.0317 51.0816 42.5521 51.8709H77.7554C79.5808 51.6078 83.075 49.8186 82.4492 44.7668C81.8234 39.7149 76.7124 38.9782 74.2351 39.2413C75.4085 37.2679 75.385 34.0868 73.0616 31.7425C71.4971 30.1638 67.9767 29.7691 65.2387 31.7425C64.4564 27.4011 61.3272 20.5543 53.5042 22.2703Z" fill="#A1A1A5"/>
<path d="M38.226 27.1479C29.3611 29.075 27.1448 39.1926 29.5538 44.0105C24.7359 43.5287 17.4127 45.7449 17.0273 52.6827C16.6418 59.6204 20.3998 62.3185 24.7359 63.282H30.3913C30.7652 63.282 31.1079 63.0735 31.2796 62.7414L36.0376 53.5407C36.2093 53.2086 36.552 53 36.9259 53H45.1315C45.9302 53 46.4066 53.8901 45.9635 54.5547L43.0365 58.9453C42.5934 59.6099 43.0698 60.5 43.8685 60.5H45.2868C46.0025 60.5 46.4177 61.31 46 61.891C45.5823 62.4721 45.9975 63.282 46.7132 63.282H68.0969C70.3452 62.9608 74.6492 60.7767 73.8783 54.6098C73.1075 48.4429 66.8121 47.5436 63.7608 47.8648C65.2061 45.4559 65.1772 41.5726 62.3154 38.7108C60.3883 36.7837 56.0522 36.3019 52.6796 38.7108C51.7161 33.4111 47.8617 25.0532 38.226 27.1479Z" fill="#F2F2F1"/>
<path d="M45 54H37L30.5 67H36L31.5 77.5L45 61.5H40L45 54Z" fill="#FDE74C"/>
</svg>
